# Blender v2.80 (sub 75) OBJ File: 'pinetree.blend'
# www.blender.org
mtllib pinetree.mtl
o Cube
v -47.370892 133.955139 144.553589
v -53.483643 131.690186 -141.549179
v 34.852882 -0.032655 16.116959
v 16.662703 0.046134 -36.915855
v -38.070862 -0.041951 -9.075456
v 63.422646 421.613220 -12.676806
v 32.385193 477.389160 32.727680
v -6.962294 540.282654 -11.229342
v 4.311856 571.112610 0.996672
v 28.442633 452.946289 -43.262547
v 139.480728 153.693619 31.489712
v 121.184502 151.735336 -85.045174
v -113.394096 150.445740 100.284470
v -132.482635 204.551117 27.937737
v 27.965296 148.984604 -145.390442
v 42.677319 131.130630 124.678085
v -123.454346 143.285797 -93.624466
v -24.765129 141.556534 -10.791054
v 27.517244 140.253387 -14.273087
v 18.915936 123.376358 23.213308
v -9.104474 0.028472 37.809330
v -2.799804 141.199905 29.805189
v 95.960121 134.296127 118.520081
v 51.529610 127.971245 -122.703613
v -4.003384 119.873390 -26.102289
vt 0.821794 0.433538
vt 0.834557 0.338196
vt 0.907206 0.520460
vt 0.899059 0.368801
vt 0.655489 0.078612
vt 0.781493 0.022718
vt 0.304891 0.025692
vt 0.395640 0.000237
vt 0.395640 0.537782
vt 0.610080 0.110050
vt 0.655015 0.534370
vt 0.489279 0.506571
vt 0.366645 0.508074
vt 0.245991 0.125362
vt 0.999763 0.497880
vt 0.947394 0.395695
vt 0.999763 0.000237
vt 0.606345 0.702895
vt 0.601029 0.596598
vt 0.606345 0.534844
vt 0.522931 0.812579
vt 0.517656 0.588497
vt 0.600554 0.864974
vt 0.422056 0.879002
vt 0.396114 0.842417
vt 0.517182 0.864974
vt 0.735807 0.572907
vt 0.818176 0.662799
vt 0.679159 0.598063
vt 0.799490 0.721627
vt 0.807652 0.850264
vt 0.828683 0.520935
vt 0.600554 0.534844
vt 0.218750 0.571431
vt 0.335346 0.594767
vt 0.186788 0.620803
vt 0.368943 0.651436
vt 0.368943 0.538257
vt 0.000237 0.538257
vt 0.186314 0.545805
vt 0.037239 0.575550
vt 0.186314 0.666932
vt 0.149719 0.610010
vt 0.991014 0.537332
vt 0.396114 0.440081
vt 0.655015 0.000237
vt 0.083023 0.103202
vt 0.907680 0.027924
vt 0.000237 0.159835
vt 0.907206 0.000237
vt 0.010142 0.672623
vt 0.006205 0.615274
vt 0.713859 0.832994
vt 0.655489 0.710048
vt 0.828683 0.889877
vt 0.517182 0.534844
vt 0.485596 0.713375
vt 0.461655 0.665812
vt 0.425232 0.716853
vt 0.189882 0.541477
vn 0.9166 0.3437 0.2043
vn 0.7750 0.3543 -0.5234
vn 0.9569 0.2462 -0.1544
vn -0.4693 0.3251 0.8210
vn 0.1715 0.2688 0.9478
vn -0.9371 0.3486 -0.0149
vn -0.0872 0.3117 -0.9462
vn 0.1196 -0.7515 0.6488
vn -0.2732 -0.9607 0.0496
vn 0.1079 -0.6710 -0.7336
vn 0.0443 -0.9910 -0.1264
vn -0.2094 -0.9757 0.0642
vn -0.0493 -0.9954 -0.0820
vn -0.1560 -0.9877 0.0112
vn 0.9572 0.1082 0.2683
vn 0.9457 -0.0208 -0.3244
vn 0.4425 0.0056 0.8967
vn 0.2718 0.1329 -0.9531
vn -0.0550 -0.9983 -0.0164
vn 0.9181 0.3028 0.2557
vn -0.0018 -1.0000 -0.0009
vn 0.0018 -1.0000 0.0004
vn 0.0361 0.3570 -0.9334
vn 0.8343 0.2742 0.4783
vn 0.7686 0.3140 -0.5574
vn -0.0231 0.3144 0.9490
vn -0.8158 0.3389 0.4687
vn -0.9204 0.3175 -0.2283
vn -0.1117 0.3167 -0.9419
vn -0.5005 0.3143 -0.8067
vn 0.5173 0.2718 -0.8115
vn -0.8615 0.0770 0.5018
vn 0.3415 -0.9391 -0.0381
vn -0.9637 -0.2603 0.0596
vn 0.5282 -0.2750 -0.8034
vn 0.0583 -0.9975 -0.0403
vn 0.3225 -0.9466 0.0006
vn -0.0507 -0.9950 0.0862
vn -0.0175 -0.9939 0.1087
vn 0.3197 0.0394 0.9467
vn -0.4926 0.0164 -0.8701
vn 0.6470 0.6287 0.4315
vn -0.0419 0.5492 -0.8346
usemtl pinetree
s off
f 7/1/1 6/2/1 9/3/1
f 9/3/2 6/2/2 10/4/2
f 6/2/3 11/5/3 12/6/3
f 13/7/4 1/8/4 9/9/4
f 7/10/5 1/11/5 23/12/5
f 9/9/6 8/13/6 14/14/6
f 8/15/7 10/16/7 2/17/7
f 1/18/8 16/19/8 23/20/8
f 13/21/9 17/22/9 1/23/9
f 15/24/10 24/25/10 2/26/10
f 16/27/11 22/28/11 23/29/11
f 23/29/12 19/30/12 24/31/12
f 1/32/13 22/28/13 16/27/13
f 17/22/14 2/33/14 1/23/14
f 20/34/15 3/35/15 19/36/15
f 19/36/16 3/35/16 4/37/16
f 20/34/17 21/38/17 3/35/17
f 19/39/18 4/40/18 25/41/18
f 23/29/19 22/28/19 19/30/19
f 7/1/20 11/5/20 6/2/20
f 3/35/21 21/38/21 4/37/21
f 4/40/22 21/42/22 5/43/22
f 9/44/23 10/16/23 8/15/23
f 7/10/24 23/12/24 11/45/24
f 10/4/25 6/2/25 12/6/25
f 9/46/26 1/11/26 7/10/26
f 9/9/27 14/14/27 13/7/27
f 8/13/28 17/47/28 14/14/28
f 2/17/29 10/16/29 15/48/29
f 17/47/30 8/13/30 2/49/30
f 10/4/31 12/6/31 15/50/31
f 5/43/32 21/42/32 22/51/32 18/52/32
f 23/29/33 24/31/33 12/53/33 11/54/33
f 13/7/34 14/14/34 17/47/34
f 15/55/35 12/53/35 24/31/35
f 1/56/36 18/57/36 22/58/36
f 1/56/37 2/26/37 18/57/37
f 2/26/38 24/25/38 18/57/38
f 24/25/39 19/59/39 18/57/39
f 20/34/40 22/60/40 21/38/40
f 5/43/41 18/52/41 25/41/41 4/40/41
f 19/36/42 22/60/42 20/34/42
f 18/52/43 19/39/43 25/41/43
